<?xml version="1.0" standalone="no"?>
<!DOCTYPE svg PUBLIC "-//W3C//DTD SVG 20010904//EN"
 "http://www.w3.org/TR/2001/REC-SVG-20010904/DTD/svg10.dtd">
<svg version="1.0" xmlns="http://www.w3.org/2000/svg"
 width="924.000000pt" height="637.000000pt" viewBox="0 0 924.000000 637.000000"
 preserveAspectRatio="xMidYMid meet">
<metadata>
Created by potrace 1.16, written by Peter Selinger 2001-2019
</metadata>
<g transform="translate(0.000000,637.000000) scale(0.100000,-0.100000)"
fill="#000000" stroke="none">
<path d="M3465 4325 c-11 -9 -13 -14 -5 -10 8 4 4 -3 -10 -15 -14 -12 -18 -19
-10 -15 8 4 6 -1 -4 -9 -11 -9 -16 -16 -12 -16 4 0 -1 -13 -10 -29 -10 -17
-21 -28 -26 -25 -5 3 -8 2 -7 -3 3 -20 -2 -34 -11 -28 -6 4 -10 3 -9 -2 3 -20
-2 -34 -11 -28 -6 4 -10 3 -9 -2 3 -20 -2 -34 -11 -28 -6 4 -10 3 -9 -2 3 -20
-2 -34 -11 -28 -6 4 -10 3 -9 -2 3 -20 -2 -34 -11 -28 -6 4 -10 3 -9 -2 3 -20
-2 -34 -11 -28 -6 4 -10 3 -9 -2 3 -20 -2 -34 -11 -28 -6 4 -10 3 -9 -2 3 -20
-2 -34 -11 -28 -6 4 -10 3 -9 -2 3 -20 -2 -34 -11 -28 -6 4 -10 3 -9 -2 4 -21
-2 -34 -13 -27 -7 4 -8 3 -4 -4 4 -7 -5 -24 -21 -39 -15 -14 -21 -23 -13 -19
8 4 4 -2 -10 -14 -14 -12 -18 -19 -10 -15 8 4 4 -3 -10 -15 -14 -12 -18 -19
-10 -15 8 4 4 -3 -10 -15 -14 -12 -18 -19 -10 -15 8 4 4 -3 -10 -15 -14 -12
-18 -19 -10 -15 8 4 4 -3 -10 -15 -14 -12 -18 -19 -10 -15 8 4 4 -3 -10 -15
-14 -12 -18 -19 -10 -15 8 4 6 -1 -4 -9 -11 -9 -16 -16 -10 -16 5 0 0 -7 -10
-15 -11 -8 -16 -15 -10 -15 5 0 0 -7 -10 -15 -11 -8 -16 -15 -12 -15 4 0 -1
-13 -10 -29 -10 -17 -21 -28 -26 -25 -5 3 -8 2 -7 -3 3 -20 -2 -34 -11 -28 -6
4 -10 3 -9 -2 3 -20 -2 -34 -11 -28 -6 4 -10 3 -9 -2 3 -20 -2 -34 -11 -28 -6
4 -10 3 -9 -2 3 -20 -2 -34 -11 -28 -6 4 -10 3 -9 -2 3 -20 -2 -34 -11 -28 -6
4 -10 3 -9 -2 3 -20 -2 -34 -11 -28 -6 4 -10 3 -9 -2 3 -20 -2 -34 -11 -28 -6
4 -10 3 -9 -2 3 -20 -2 -34 -11 -28 -6 4 -10 3 -9 -2 4 -21 -2 -34 -13 -27 -7
4 -8 3 -4 -4 4 -7 -5 -24 -21 -39 -15 -14 -21 -23 -13 -19 8 4 4 -2 -10 -14
-14 -12 -19 -19 -12 -15 11 6 11 3 1 -13 -7 -12 -17 -19 -21 -16 -4 3 -5 -3
-1 -12 3 -10 2 -15 -3 -12 -5 4 -9 -23 -9 -62 0 -39 4 -66 9 -62 5 3 7 -2 3
-11 -3 -10 -2 -17 3 -17 7 0 23 -33 23 -50 0 -3 7 -11 16 -18 9 -8 12 -11 6
-9 -5 3 107 -112 250 -256 143 -144 266 -260 273 -258 6 2 12 -2 12 -8 0 -6 7
-8 15 -5 8 4 15 1 15 -5 0 -6 7 -8 17 -4 10 4 14 2 10 -4 -5 -7 1 -9 15 -5 13
3 19 1 15 -5 -5 -7 1 -9 15 -5 14 3 19 1 14 -6 -5 -8 -2 -10 8 -6 9 3 16 1 16
-5 0 -6 7 -8 15 -5 8 4 15 1 15 -5 0 -6 7 -8 15 -5 8 4 15 1 15 -5 0 -6 7 -8
17 -4 12 5 14 3 8 -8 -6 -10 -5 -11 4 -3 9 8 9 27 2 75 -9 55 -17 1979 -8
1979 1 0 571 -570 1267 -1266 696 -696 1273 -1270 1282 -1275 14 -7 16 -6 12
5 -3 8 43 123 102 256 97 219 106 245 97 274 -6 17 -164 468 -352 1001 -189
534 -343 977 -344 985 0 10 -13 16 -36 18 -20 1 -484 5 -1031 8 -908 5 -997 4
-1015 -11z"/>
</g>
</svg>
