<?xml version="1.0" standalone="no"?>
<!DOCTYPE svg PUBLIC "-//W3C//DTD SVG 20010904//EN"
 "http://www.w3.org/TR/2001/REC-SVG-20010904/DTD/svg10.dtd">
<svg version="1.0" xmlns="http://www.w3.org/2000/svg"
 width="186.000000pt" height="187.000000pt" viewBox="0 0 186.000000 187.000000"
 preserveAspectRatio="xMidYMid meet">
<metadata>
Created by potrace 1.16, written by Peter Selinger 2001-2019
</metadata>
<g transform="translate(0.000000,187.000000) scale(0.100000,-0.100000)"
fill="#000000" stroke="none">
<path d="M0 935 l0 -935 930 0 930 0 0 935 0 935 -930 0 -930 0 0 -935z m602
198 l3 -118 77 -3 77 -3 3 118 3 118 75 0 75 0 0 -310 0 -310 -77 -3 -78 -3 0
121 0 121 -77 -3 -78 -3 -3 -117 -3 -118 -74 0 -75 0 0 315 0 315 75 0 74 0 3
-117z m856 -200 l2 -303 -232 2 -233 2 223 6 c122 3 222 8 222 13 0 4 0 135 0
292 l0 285 -222 3 -223 3 230 -1 230 0 3 -302z"/>
</g>
</svg>
